<?xml version="1.0" encoding="UTF-8"?>
<!DOCTYPE svg PUBLIC "-//W3C//DTD SVG 1.1//EN" "http://www.w3.org/Graphics/SVG/1.1/DTD/svg11.dtd">
<svg xmlns="http://www.w3.org/2000/svg" version="1.1" width="32px" height="32px" style="shape-rendering:geometricPrecision; text-rendering:geometricPrecision; image-rendering:optimizeQuality; fill-rule:evenodd; clip-rule:evenodd" xmlns:xlink="http://www.w3.org/1999/xlink">
<g><path style="opacity:0.527" fill="#000000" d="M 15.5,-0.5 C 17.1667,-0.5 18.8333,-0.5 20.5,-0.5C 21.1667,0.833333 21.8333,0.833333 22.5,-0.5C 24.1667,-0.5 25.8333,-0.5 27.5,-0.5C 29.1667,0.5 30.5,1.83333 31.5,3.5C 31.5,4.83333 31.5,6.16667 31.5,7.5C 28.5482,11.1185 25.2148,14.4519 21.5,17.5C 17.0387,14.3779 13.7053,10.3779 11.5,5.5C 11.937,2.77504 13.2704,0.775041 15.5,-0.5 Z M 17.5,1.5 C 20.0212,4.01762 22.5212,4.01762 25,1.5C 28.0748,2.4691 29.0748,4.4691 28,7.5C 25.9835,9.68396 23.8169,11.684 21.5,13.5C 17.3417,11.2263 15.1751,7.89297 15,3.5C 15.9947,2.93406 16.828,2.26739 17.5,1.5 Z"/></g>
<g><path style="opacity:0.551" fill="#000000" d="M -0.5,14.5 C 9.98725,17.0542 20.6539,19.0542 31.5,20.5C 31.5,22.1667 31.5,23.8333 31.5,25.5C 28.1309,27.5146 24.7976,29.5146 21.5,31.5C 19.5,31.5 17.5,31.5 15.5,31.5C 12.7092,30.2811 9.87588,28.9478 7,27.5C 4.86456,29.2785 2.36456,29.9452 -0.5,29.5C -0.5,24.5 -0.5,19.5 -0.5,14.5 Z M 1.5,16.5 C 2.78683,17.8714 3.4535,19.7047 3.5,22C 3.16667,23.8333 2.83333,25.6667 2.5,27.5C 1.51078,23.8927 1.17744,20.226 1.5,16.5 Z M 8.5,18.5 C 12.9097,20.5286 17.5764,21.6953 22.5,22C 19.854,22.4974 17.1873,22.6641 14.5,22.5C 14.5,23.5 14.5,24.5 14.5,25.5C 19.737,25.4321 24.737,24.5988 29.5,23C 26.1631,25.6706 22.4964,27.8373 18.5,29.5C 14.6772,27.5862 10.6772,26.2529 6.5,25.5C 6.18493,22.7892 6.85159,20.4559 8.5,18.5 Z"/></g>
</svg>
